<mxfile host="app.diagrams.net" modified="2024-05-09T12:49:54.722Z" agent="Mozilla/5.0 (X11; Ubuntu; Linux x86_64; rv:124.0) Gecko/20100101 Firefox/124.0" version="21.6.8" etag="10JAJtZwvI4YwuGk6v9V" type="github">
  <diagram name="Page-1" id="OAXzl8FrUvfluCURl00T">
    <mxGraphModel>
      <root>
        <mxCell id="0" />
        <mxCell id="1" parent="0" />
      </root>
    </mxGraphModel>
  </diagram>
</mxfile>
